<?xml version="1.0" encoding="UTF-8" standalone="no" ?>
<!DOCTYPE svg PUBLIC "-//W3C//DTD SVG 1.1//EN" "http://www.w3.org/Graphics/SVG/1.1/DTD/svg11.dtd">
<svg xmlns="http://www.w3.org/2000/svg" xmlns:xlink="http://www.w3.org/1999/xlink" version="1.1" width="668.25640625" height="126.96127999999999" xml:space="preserve">
<desc>Created with Fabric.js 1.6.0-rc.1</desc>
<defs></defs>
  <g transform="translate(388.52 64.5) scale(2.04 2.04)">
   <text font-family="undefined" font-size="40" font-weight="normal" style="stroke: none; stroke-width: 1; stroke-dasharray: none; stroke-linecap: butt; stroke-linejoin: miter; stroke-miterlimit: 10; fill: #006699; fill-rule: nonzero; opacity: 1;" ><tspan x="-132.72" y="8.98" style="stroke: none; stroke-width: 0; stroke-dasharray: none; stroke-linecap: butt; stroke-linejoin: miter; stroke-miterlimit: 4; fill: #006699; fill-rule: ; opacity: 1;">P</tspan><tspan x="-110.48" y="8.98" style="stroke: none; stroke-width: 0; stroke-dasharray: none; stroke-linecap: butt; stroke-linejoin: miter; stroke-miterlimit: 4; fill: #006699; fill-rule: ; opacity: 1;">r</tspan><tspan x="-97.16" y="8.98" style="stroke: none; stroke-width: 0; stroke-dasharray: none; stroke-linecap: butt; stroke-linejoin: miter; stroke-miterlimit: 4; fill: #006699; fill-rule: ; opacity: 1;">o</tspan><tspan x="-77.16" y="8.98" style="stroke: none; stroke-width: 0; stroke-dasharray: none; stroke-linecap: butt; stroke-linejoin: miter; stroke-miterlimit: 4; fill: #006699; fill-rule: ; opacity: 1;">j</tspan><tspan x="-66.04" y="8.98" style="stroke: none; stroke-width: 0; stroke-dasharray: none; stroke-linecap: butt; stroke-linejoin: miter; stroke-miterlimit: 4; fill: #006699; fill-rule: ; opacity: 1;">e</tspan><tspan x="-48.29" y="8.98" style="stroke: none; stroke-width: 0; stroke-dasharray: none; stroke-linecap: butt; stroke-linejoin: miter; stroke-miterlimit: 4; fill: #006699; fill-rule: ; opacity: 1;">c</tspan><tspan x="-30.54" y="8.98" style="stroke: none; stroke-width: 0; stroke-dasharray: none; stroke-linecap: butt; stroke-linejoin: miter; stroke-miterlimit: 4; fill: #006699; fill-rule: ; opacity: 1;">t</tspan><tspan x="-19.42" y="8.98" style="stroke: none; stroke-width: 0; stroke-dasharray: none; stroke-linecap: butt; stroke-linejoin: miter; stroke-miterlimit: 4; fill: #006699; fill-rule: ; opacity: 1;"> </tspan><tspan x="-9.42" y="8.98" style="stroke: none; stroke-width: 0; stroke-dasharray: none; stroke-linecap: butt; stroke-linejoin: miter; stroke-miterlimit: 4; fill: #006699; fill-rule: ; opacity: 1;">M</tspan><tspan x="26.14" y="8.98" style="stroke: none; stroke-width: 0; stroke-dasharray: none; stroke-linecap: butt; stroke-linejoin: miter; stroke-miterlimit: 4; fill: #006699; fill-rule: ; opacity: 1;">a</tspan><tspan x="43.9" y="8.98" style="stroke: none; stroke-width: 0; stroke-dasharray: none; stroke-linecap: butt; stroke-linejoin: miter; stroke-miterlimit: 4; fill: #006699; fill-rule: ; opacity: 1;">n</tspan><tspan x="63.9" y="8.98" style="stroke: none; stroke-width: 0; stroke-dasharray: none; stroke-linecap: butt; stroke-linejoin: miter; stroke-miterlimit: 4; fill: #006699; fill-rule: ; opacity: 1;">a</tspan><tspan x="81.65" y="8.98" style="stroke: none; stroke-width: 0; stroke-dasharray: none; stroke-linecap: butt; stroke-linejoin: miter; stroke-miterlimit: 4; fill: #006699; fill-rule: ; opacity: 1;">g</tspan><tspan x="101.65" y="8.98" style="stroke: none; stroke-width: 0; stroke-dasharray: none; stroke-linecap: butt; stroke-linejoin: miter; stroke-miterlimit: 4; fill: #006699; fill-rule: ; opacity: 1;">e</tspan><tspan x="119.4" y="8.98" style="stroke: none; stroke-width: 0; stroke-dasharray: none; stroke-linecap: butt; stroke-linejoin: miter; stroke-miterlimit: 4; fill: #006699; fill-rule: ; opacity: 1;">r</tspan></text>
 </g>
<g style="stroke: none; stroke-width: 1; stroke-dasharray: none; stroke-linecap: butt; stroke-linejoin: miter; stroke-miterlimit: 10; fill: none; fill-rule: nonzero; opacity: 1;" transform="translate(10 25.440000000000005) scale(0.16 0.16)" >
  <path d="M 114.1 335.2 c 3.1 0 6.1 -0.6 9 -1.8 l 12.1 -5 c 7.6 10 16.5 18.9 26.5 26.5 l -5 12.1 c -2.4 5.8 -2.4 12.2 0 18 s 6.9 10.3 12.7 12.7 l 21.1 8.8 c 2.9 1.2 5.9 1.8 9 1.8 c 9.5 0 18.1 -5.7 21.7 -14.5 l 5 -12.1 c 12.4 1.7 25.1 1.7 37.5 0 l 5 12.1 c 3.6 8.8 12.2 14.5 21.7 14.5 c 3.1 0 6.1 -0.6 9 -1.8 l 21.1 -8.7 c 12 -5 17.7 -18.7 12.7 -30.7 l -5 -12.1 c 10 -7.6 18.9 -16.5 26.5 -26.5 l 12.1 5 c 2.9 1.2 5.9 1.8 9 1.8 c 9.5 0 18.1 -5.7 21.7 -14.5 l 8.8 -21.1 c 5 -12 -0.7 -25.7 -12.7 -30.7 l -12.1 -5 c 1.7 -12.5 1.7 -25.1 0 -37.5 l 12.1 -5 c 12 -5 17.7 -18.7 12.7 -30.7 l -8.7 -21.1 c -3.6 -8.8 -12.2 -14.5 -21.7 -14.5 c -3.1 0 -6.1 0.6 -9 1.8 l -12.1 5 c -7.6 -10 -16.5 -18.9 -26.5 -26.5 l 5 -12.1 c 5 -12 -0.7 -25.7 -12.7 -30.7 l -21.1 -8.8 c -2.9 -1.2 -5.9 -1.8 -9 -1.8 c -9.5 0 -18.1 5.7 -21.7 14.5 l -5 12.1 c -12.4 -1.7 -25.1 -1.7 -37.5 0 l -5 -12.1 c -3.6 -8.8 -12.2 -14.5 -21.7 -14.5 c -3.1 0 -6.1 0.6 -9 1.8 l -21.1 8.7 c -5.8 2.4 -10.3 6.9 -12.7 12.7 c -2.4 5.8 -2.4 12.2 0 18 l 5 12.1 c -10 7.6 -18.9 16.5 -26.5 26.5 l -12.1 -5 c -2.9 -1.2 -5.9 -1.8 -9 -1.8 c -9.5 0 -18.1 5.7 -21.7 14.5 l -8.8 21.1 c -5 12 0.7 25.7 12.7 30.7 l 12.1 5 c -1.7 12.5 -1.7 25.1 0 37.5 l -12.1 5 c -5.8 2.4 -10.3 6.9 -12.7 12.7 c -2.4 5.8 -2.4 12.2 0 18 l 8.7 21.1 C 96.1 329.5 104.6 335.2 114.1 335.2 z M 102 289.1 c 0.2 -0.5 0.8 -1.5 2 -2 l 19.4 -8 c 4.4 -1.8 6.8 -6.4 5.9 -11.1 c -3 -15.2 -3 -30.7 0 -45.9 c 0.9 -4.6 -1.6 -9.3 -5.9 -11.1 l -19.4 -8 c -1.9 -0.8 -2.8 -2.9 -2 -4.8 l 8.8 -21.1 c 0.7 -1.7 2.3 -2.3 3.4 -2.3 c 0.5 0 1 0.1 1.4 0.3 l 19.4 8 c 4.4 1.8 9.4 0.3 12 -3.6 c 8.6 -12.9 19.6 -23.9 32.5 -32.5 c 3.9 -2.6 5.5 -7.7 3.7 -12 l -8 -19.4 c -0.8 -1.9 0.1 -4.1 2 -4.8 l 21.1 -8.7 c 0.5 -0.2 0.9 -0.3 1.4 -0.3 c 1.1 0 2.7 0.6 3.4 2.3 l 8 19.4 c 1.8 4.4 6.4 6.8 11.1 5.9 c 15.1 -3 30.8 -3 45.9 0 c 4.6 0.9 9.3 -1.6 11.1 -5.9 l 8 -19.4 c 0.7 -1.7 2.3 -2.3 3.4 -2.3 c 0.5 0 1 0.1 1.4 0.3 l 21.1 8.8 c 1.9 0.8 2.8 2.9 2 4.8 l -8 19.4 c -1.8 4.4 -0.3 9.4 3.6 12 c 12.9 8.6 23.9 19.6 32.5 32.5 c 2.6 3.9 7.6 5.5 12 3.7 l 19.4 -8 c 0.5 -0.2 0.9 -0.3 1.4 -0.3 c 1.1 0 2.7 0.6 3.4 2.3 l 8.7 21.1 c 0.8 1.9 -0.1 4.1 -2 4.8 l -19.4 8 c -4.4 1.8 -6.8 6.4 -5.9 11.1 c 3 15.2 3 30.7 0 45.9 c -0.9 4.6 1.6 9.3 5.9 11.1 l 19.4 8 c 1.9 0.8 2.8 2.9 2 4.8 l -8.8 21.1 c -0.7 1.7 -2.3 2.3 -3.4 2.3 c -0.5 0 -1 -0.1 -1.4 -0.3 l -19.4 -8 c -4.4 -1.8 -9.4 -0.3 -12 3.6 c -8.6 12.9 -19.6 23.9 -32.5 32.5 c -3.9 2.6 -5.5 7.7 -3.7 12 l 8 19.4 c 0.8 1.9 -0.1 4.1 -2 4.8 l -21.1 8.7 c -0.5 0.2 -0.9 0.3 -1.4 0.3 c -1.1 0 -2.7 -0.6 -3.4 -2.3 l -8 -19.4 c -1.6 -3.8 -5.2 -6.1 -9.1 -6.1 c -0.6 0 -1.3 0.1 -1.9 0.2 c -15.1 3 -30.8 3 -45.9 0 c -4.6 -0.9 -9.3 1.6 -11.1 5.9 l -8 19.4 c -0.7 1.7 -2.3 2.3 -3.4 2.3 c -0.5 0 -1 -0.1 -1.4 -0.3 l -21.1 -8.8 c -1.2 -0.5 -1.8 -1.5 -2 -2 s -0.5 -1.6 0 -2.8 l 8 -19.4 c 1.8 -4.4 0.3 -9.4 -3.6 -12 c -12.9 -8.6 -23.9 -19.6 -32.5 -32.5 c -2.6 -3.9 -7.7 -5.5 -12 -3.7 l -19.4 8 c -0.5 0.2 -0.9 0.3 -1.4 0.3 c -1.1 0 -2.7 -0.6 -3.4 -2.3 l -8.8 -21.1 C 101.5 290.7 101.7 289.7 102 289.1 z" style="stroke: none; stroke-width: 1; stroke-dasharray: none; stroke-linecap: butt; stroke-linejoin: miter; stroke-miterlimit: 10; fill: #3C92CA; fill-rule: nonzero; opacity: 1;" transform=" matrix(1 0 0 1 0 0) " stroke-linecap="round" />
  <path d="M 245.1 315.9 c 9.3 0 18.4 -1.8 27.1 -5.4 c 17.5 -7.2 31.1 -20.8 38.3 -38.3 s 7.2 -36.7 0 -54.2 c -11 -26.6 -36.7 -43.7 -65.5 -43.7 c -9.3 0 -18.4 1.8 -27.1 5.4 c -17.5 7.2 -31.1 20.8 -38.3 38.3 s -7.2 36.7 0 54.2 C 190.7 298.8 216.4 315.9 245.1 315.9 z M 198 225.6 c 5.2 -12.6 15 -22.4 27.6 -27.6 c 6.2 -2.6 12.8 -3.9 19.5 -3.9 c 20.7 0 39.2 12.4 47.2 31.5 c 5.2 12.6 5.2 26.5 0 39 c -5.2 12.6 -15 22.4 -27.6 27.6 c -6.2 2.6 -12.8 3.9 -19.5 3.9 c -20.7 0 -39.2 -12.4 -47.2 -31.5 C 192.8 252 192.8 238.2 198 225.6 z" style="stroke: none; stroke-width: 1; stroke-dasharray: none; stroke-linecap: butt; stroke-linejoin: miter; stroke-miterlimit: 10; fill: #3C92CA; fill-rule: nonzero; opacity: 1;" transform=" matrix(1 0 0 1 0 0) " stroke-linecap="round" />
  <path d="M 245.1 490.2 c 135.1 0 245.1 -110 245.1 -245.1 S 380.2 0 245.1 0 S 0 110 0 245.1 S 110 490.2 245.1 490.2 z M 245.1 19.8 c 124.2 0 225.3 101.1 225.3 225.3 S 369.3 470.4 245.1 470.4 S 19.8 369.3 19.8 245.1 S 120.9 19.8 245.1 19.8 z" style="stroke: none; stroke-width: 1; stroke-dasharray: none; stroke-linecap: butt; stroke-linejoin: miter; stroke-miterlimit: 10; fill: #2C2F33; fill-rule: nonzero; opacity: 1;" transform=" matrix(1 0 0 1 0 0) " stroke-linecap="round" />
</g>
</svg>